<svg id="Capa_1" enable-background="new 0 0 512 512" height="512" viewBox="0 0 512 512" width="512" xmlns="http://www.w3.org/2000/svg"><g id="O_1_"><g><path d="m256.633 512c-143.566 0-240.633-93.607-240.633-253.15 0-153.334 82.952-258.85 239.367-258.85 141.514 0 240.633 93.002 240.633 256.633 0 161.803-97.761 255.367-239.367 255.367zm-1.266-482c-133.055 0-209.367 83.412-209.367 228.85 0 139.729 78.741 223.15 210.633 223.15 129.142 0 209.367-86.355 209.367-225.367 0-139.792-80.71-226.633-210.633-226.633zm.949 400.895c-78.808 0-143.798-56.932-143.798-175.211 0-120.923 63.326-174.578 143.798-174.578 80.814 0 142.849 53.189 142.849 173.312 0 122.091-65.022 176.477-142.849 176.477zm0-319.79c-81.589 0-113.798 62.954-113.798 144.578 0 90.927 42.541 145.211 113.798 145.211 71.717 0 112.849-53.389 112.849-146.478 0-81.228-31.292-143.311-112.849-143.311z"/></g></g></svg>